<mxfile host="app.diagrams.net" modified="2022-10-30T23:13:30.115Z" agent="5.0 (Windows NT 10.0; Win64; x64) AppleWebKit/537.36 (KHTML, like Gecko) Chrome/106.0.0.0 Safari/537.36" etag="l4tNLu_f4077Zpg9tsgi" version="20.5.1" type="github">
  <diagram id="C5RBs43oDa-KdzZeNtuy" name="Page-1">
    <mxGraphModel dx="2249" dy="786" grid="1" gridSize="10" guides="1" tooltips="1" connect="1" arrows="1" fold="1" page="1" pageScale="1" pageWidth="827" pageHeight="1169" math="0" shadow="0">
      <root>
        <mxCell id="WIyWlLk6GJQsqaUBKTNV-0" />
        <mxCell id="WIyWlLk6GJQsqaUBKTNV-1" parent="WIyWlLk6GJQsqaUBKTNV-0" />
        <mxCell id="y1mFWeqao_wKB7DGrWQv-11" value="" style="whiteSpace=wrap;html=1;aspect=fixed;" vertex="1" parent="WIyWlLk6GJQsqaUBKTNV-1">
          <mxGeometry x="180" y="50" width="582.5" height="582.5" as="geometry" />
        </mxCell>
        <mxCell id="y1mFWeqao_wKB7DGrWQv-9" style="edgeStyle=orthogonalEdgeStyle;rounded=0;orthogonalLoop=1;jettySize=auto;html=1;entryX=0.143;entryY=0.464;entryDx=0;entryDy=0;entryPerimeter=0;" edge="1" parent="WIyWlLk6GJQsqaUBKTNV-1" source="y1mFWeqao_wKB7DGrWQv-0" target="y1mFWeqao_wKB7DGrWQv-8">
          <mxGeometry relative="1" as="geometry" />
        </mxCell>
        <mxCell id="y1mFWeqao_wKB7DGrWQv-0" value="" style="dashed=0;outlineConnect=0;html=1;align=center;labelPosition=center;verticalLabelPosition=bottom;verticalAlign=top;shape=mxgraph.weblogos.github" vertex="1" parent="WIyWlLk6GJQsqaUBKTNV-1">
          <mxGeometry x="210" y="90" width="75" height="75" as="geometry" />
        </mxCell>
        <mxCell id="y1mFWeqao_wKB7DGrWQv-7" style="edgeStyle=orthogonalEdgeStyle;rounded=0;orthogonalLoop=1;jettySize=auto;html=1;exitX=1;exitY=0.5;exitDx=0;exitDy=0;exitPerimeter=0;" edge="1" parent="WIyWlLk6GJQsqaUBKTNV-1" source="y1mFWeqao_wKB7DGrWQv-6" target="y1mFWeqao_wKB7DGrWQv-0">
          <mxGeometry relative="1" as="geometry" />
        </mxCell>
        <mxCell id="y1mFWeqao_wKB7DGrWQv-6" value="" style="sketch=0;aspect=fixed;pointerEvents=1;shadow=0;dashed=0;html=1;strokeColor=none;labelPosition=center;verticalLabelPosition=bottom;verticalAlign=top;align=center;fillColor=#00188D;shape=mxgraph.azure.computer" vertex="1" parent="WIyWlLk6GJQsqaUBKTNV-1">
          <mxGeometry x="10" y="232.5" width="100" height="90" as="geometry" />
        </mxCell>
        <mxCell id="y1mFWeqao_wKB7DGrWQv-18" style="edgeStyle=orthogonalEdgeStyle;rounded=0;orthogonalLoop=1;jettySize=auto;html=1;" edge="1" parent="WIyWlLk6GJQsqaUBKTNV-1" source="y1mFWeqao_wKB7DGrWQv-8" target="y1mFWeqao_wKB7DGrWQv-17">
          <mxGeometry relative="1" as="geometry" />
        </mxCell>
        <mxCell id="y1mFWeqao_wKB7DGrWQv-8" value="" style="shape=image;html=1;verticalAlign=top;verticalLabelPosition=bottom;labelBackgroundColor=#ffffff;imageAspect=0;aspect=fixed;image=https://cdn2.iconfinder.com/data/icons/css-vol-1/24/circleci-128.png" vertex="1" parent="WIyWlLk6GJQsqaUBKTNV-1">
          <mxGeometry x="460" y="91" width="77.5" height="77.5" as="geometry" />
        </mxCell>
        <mxCell id="y1mFWeqao_wKB7DGrWQv-58" value="" style="edgeStyle=orthogonalEdgeStyle;rounded=0;orthogonalLoop=1;jettySize=auto;html=1;fontSize=15;fontColor=#CC0000;" edge="1" parent="WIyWlLk6GJQsqaUBKTNV-1" source="y1mFWeqao_wKB7DGrWQv-10" target="y1mFWeqao_wKB7DGrWQv-15">
          <mxGeometry relative="1" as="geometry" />
        </mxCell>
        <mxCell id="y1mFWeqao_wKB7DGrWQv-62" style="edgeStyle=orthogonalEdgeStyle;rounded=0;orthogonalLoop=1;jettySize=auto;html=1;exitX=0.5;exitY=0;exitDx=0;exitDy=0;exitPerimeter=0;fontSize=15;fontColor=#CC0000;" edge="1" parent="WIyWlLk6GJQsqaUBKTNV-1" source="y1mFWeqao_wKB7DGrWQv-10" target="y1mFWeqao_wKB7DGrWQv-16">
          <mxGeometry relative="1" as="geometry" />
        </mxCell>
        <mxCell id="y1mFWeqao_wKB7DGrWQv-10" value="" style="outlineConnect=0;dashed=0;verticalLabelPosition=bottom;verticalAlign=top;align=center;html=1;shape=mxgraph.aws3.elastic_beanstalk;fillColor=#F58534;gradientColor=none;" vertex="1" parent="WIyWlLk6GJQsqaUBKTNV-1">
          <mxGeometry x="300" y="507" width="67.5" height="93" as="geometry" />
        </mxCell>
        <mxCell id="y1mFWeqao_wKB7DGrWQv-15" value="" style="outlineConnect=0;dashed=0;verticalLabelPosition=bottom;verticalAlign=top;align=center;html=1;shape=mxgraph.aws3.rds;fillColor=#2E73B8;gradientColor=none;" vertex="1" parent="WIyWlLk6GJQsqaUBKTNV-1">
          <mxGeometry x="206.75" y="513" width="72" height="81" as="geometry" />
        </mxCell>
        <mxCell id="y1mFWeqao_wKB7DGrWQv-16" value="" style="outlineConnect=0;dashed=0;verticalLabelPosition=bottom;verticalAlign=top;align=center;html=1;shape=mxgraph.aws3.s3;fillColor=#E05243;gradientColor=none;" vertex="1" parent="WIyWlLk6GJQsqaUBKTNV-1">
          <mxGeometry x="210" y="360" width="76.5" height="93" as="geometry" />
        </mxCell>
        <mxCell id="y1mFWeqao_wKB7DGrWQv-24" value="" style="edgeStyle=orthogonalEdgeStyle;rounded=0;orthogonalLoop=1;jettySize=auto;html=1;fontSize=12;" edge="1" parent="WIyWlLk6GJQsqaUBKTNV-1" source="y1mFWeqao_wKB7DGrWQv-17" target="y1mFWeqao_wKB7DGrWQv-23">
          <mxGeometry relative="1" as="geometry" />
        </mxCell>
        <mxCell id="y1mFWeqao_wKB7DGrWQv-28" value="" style="edgeStyle=orthogonalEdgeStyle;rounded=0;orthogonalLoop=1;jettySize=auto;html=1;fontSize=13;fontColor=#009900;" edge="1" parent="WIyWlLk6GJQsqaUBKTNV-1" source="y1mFWeqao_wKB7DGrWQv-17" target="y1mFWeqao_wKB7DGrWQv-27">
          <mxGeometry relative="1" as="geometry" />
        </mxCell>
        <mxCell id="y1mFWeqao_wKB7DGrWQv-17" value="" style="aspect=fixed;perimeter=ellipsePerimeter;html=1;align=center;shadow=0;dashed=0;fontColor=#4277BB;labelBackgroundColor=#ffffff;fontSize=12;spacingTop=3;image;image=img/lib/ibm/devops/build_test.svg;" vertex="1" parent="WIyWlLk6GJQsqaUBKTNV-1">
          <mxGeometry x="660" y="130" width="87" height="87" as="geometry" />
        </mxCell>
        <mxCell id="y1mFWeqao_wKB7DGrWQv-19" value="Developer Push to Github" style="text;html=1;align=center;verticalAlign=middle;resizable=0;points=[];autosize=1;strokeColor=none;fillColor=none;fontStyle=1;strokeWidth=3;fontSize=14;" vertex="1" parent="WIyWlLk6GJQsqaUBKTNV-1">
          <mxGeometry x="-40" y="190" width="200" height="30" as="geometry" />
        </mxCell>
        <mxCell id="y1mFWeqao_wKB7DGrWQv-20" value="CircleCI Detects New Updates" style="text;html=1;align=center;verticalAlign=middle;resizable=0;points=[];autosize=1;strokeColor=none;fillColor=none;fontStyle=1;strokeWidth=3;fontSize=12;" vertex="1" parent="WIyWlLk6GJQsqaUBKTNV-1">
          <mxGeometry x="278.75" y="91" width="190" height="30" as="geometry" />
        </mxCell>
        <mxCell id="y1mFWeqao_wKB7DGrWQv-21" value="Building and Testing" style="text;html=1;align=center;verticalAlign=middle;resizable=0;points=[];autosize=1;strokeColor=none;fillColor=none;fontStyle=1;strokeWidth=3;fontSize=12;" vertex="1" parent="WIyWlLk6GJQsqaUBKTNV-1">
          <mxGeometry x="536" y="100" width="140" height="30" as="geometry" />
        </mxCell>
        <mxCell id="y1mFWeqao_wKB7DGrWQv-37" style="edgeStyle=orthogonalEdgeStyle;rounded=0;orthogonalLoop=1;jettySize=auto;html=1;fontSize=15;fontColor=#CC0000;" edge="1" parent="WIyWlLk6GJQsqaUBKTNV-1" source="y1mFWeqao_wKB7DGrWQv-23" target="y1mFWeqao_wKB7DGrWQv-26">
          <mxGeometry relative="1" as="geometry" />
        </mxCell>
        <mxCell id="y1mFWeqao_wKB7DGrWQv-23" value="&lt;b&gt;&lt;font style=&quot;font-size: 16px;&quot;&gt;Succeed&lt;/font&gt;&lt;/b&gt;" style="ellipse;whiteSpace=wrap;html=1;verticalAlign=top;fontColor=#009900;shadow=0;dashed=0;labelBackgroundColor=default;spacingTop=3;" vertex="1" parent="WIyWlLk6GJQsqaUBKTNV-1">
          <mxGeometry x="610" y="300" width="120" height="39.5" as="geometry" />
        </mxCell>
        <mxCell id="y1mFWeqao_wKB7DGrWQv-38" style="edgeStyle=orthogonalEdgeStyle;rounded=0;orthogonalLoop=1;jettySize=auto;html=1;fontSize=15;fontColor=#CC0000;" edge="1" parent="WIyWlLk6GJQsqaUBKTNV-1" source="y1mFWeqao_wKB7DGrWQv-26" target="y1mFWeqao_wKB7DGrWQv-35">
          <mxGeometry relative="1" as="geometry" />
        </mxCell>
        <mxCell id="y1mFWeqao_wKB7DGrWQv-41" value="" style="edgeStyle=orthogonalEdgeStyle;rounded=0;orthogonalLoop=1;jettySize=auto;html=1;fontSize=15;fontColor=#CC0000;" edge="1" parent="WIyWlLk6GJQsqaUBKTNV-1" source="y1mFWeqao_wKB7DGrWQv-26" target="y1mFWeqao_wKB7DGrWQv-40">
          <mxGeometry relative="1" as="geometry" />
        </mxCell>
        <mxCell id="y1mFWeqao_wKB7DGrWQv-26" value="&lt;font style=&quot;font-size: 13px;&quot;&gt;Waiting for Approval&lt;/font&gt;" style="text;html=1;align=center;verticalAlign=middle;resizable=0;points=[];autosize=1;strokeColor=none;fillColor=none;fontStyle=1;strokeWidth=3;fontSize=13;" vertex="1" parent="WIyWlLk6GJQsqaUBKTNV-1">
          <mxGeometry x="595" y="360" width="150" height="30" as="geometry" />
        </mxCell>
        <mxCell id="y1mFWeqao_wKB7DGrWQv-32" value="" style="edgeStyle=orthogonalEdgeStyle;rounded=0;orthogonalLoop=1;jettySize=auto;html=1;fontSize=13;fontColor=#CC0000;" edge="1" parent="WIyWlLk6GJQsqaUBKTNV-1" source="y1mFWeqao_wKB7DGrWQv-27" target="y1mFWeqao_wKB7DGrWQv-31">
          <mxGeometry relative="1" as="geometry" />
        </mxCell>
        <mxCell id="y1mFWeqao_wKB7DGrWQv-27" value="&lt;b style=&quot;&quot;&gt;&lt;font color=&quot;#cc0000&quot; style=&quot;font-size: 16px;&quot;&gt;Failed&lt;/font&gt;&lt;/b&gt;" style="ellipse;whiteSpace=wrap;html=1;verticalAlign=top;fontColor=#4277BB;shadow=0;dashed=0;labelBackgroundColor=default;spacingTop=3;" vertex="1" parent="WIyWlLk6GJQsqaUBKTNV-1">
          <mxGeometry x="546" y="240" width="120" height="40" as="geometry" />
        </mxCell>
        <mxCell id="y1mFWeqao_wKB7DGrWQv-31" value="&lt;b&gt;&lt;font style=&quot;font-size: 16px;&quot; color=&quot;#cc0000&quot;&gt;Abort&lt;/font&gt;&lt;/b&gt;" style="rounded=1;whiteSpace=wrap;html=1;verticalAlign=top;fontColor=#4277BB;shadow=0;dashed=0;labelBackgroundColor=default;spacingTop=3;" vertex="1" parent="WIyWlLk6GJQsqaUBKTNV-1">
          <mxGeometry x="340" y="240" width="120" height="40" as="geometry" />
        </mxCell>
        <mxCell id="y1mFWeqao_wKB7DGrWQv-44" value="" style="edgeStyle=orthogonalEdgeStyle;rounded=0;orthogonalLoop=1;jettySize=auto;html=1;fontSize=15;fontColor=#CC0000;" edge="1" parent="WIyWlLk6GJQsqaUBKTNV-1" source="y1mFWeqao_wKB7DGrWQv-35" target="y1mFWeqao_wKB7DGrWQv-43">
          <mxGeometry relative="1" as="geometry" />
        </mxCell>
        <mxCell id="y1mFWeqao_wKB7DGrWQv-35" value="&lt;b style=&quot;&quot;&gt;&lt;font style=&quot;font-size: 15px;&quot;&gt;Approved&lt;/font&gt;&lt;/b&gt;" style="ellipse;whiteSpace=wrap;html=1;verticalAlign=top;fontColor=#009900;shadow=0;dashed=0;labelBackgroundColor=default;spacingTop=3;" vertex="1" parent="WIyWlLk6GJQsqaUBKTNV-1">
          <mxGeometry x="610" y="418" width="120" height="39.5" as="geometry" />
        </mxCell>
        <mxCell id="y1mFWeqao_wKB7DGrWQv-40" value="&lt;span style=&quot;font-size: 13px;&quot;&gt;Hold&lt;/span&gt;" style="text;html=1;align=center;verticalAlign=middle;resizable=0;points=[];autosize=1;strokeColor=none;fillColor=none;fontStyle=1;strokeWidth=3;fontSize=15;fontColor=#CC0000;" vertex="1" parent="WIyWlLk6GJQsqaUBKTNV-1">
          <mxGeometry x="496" y="360" width="50" height="30" as="geometry" />
        </mxCell>
        <mxCell id="y1mFWeqao_wKB7DGrWQv-51" value="" style="edgeStyle=orthogonalEdgeStyle;rounded=0;orthogonalLoop=1;jettySize=auto;html=1;fontSize=15;fontColor=#CC0000;" edge="1" parent="WIyWlLk6GJQsqaUBKTNV-1" source="y1mFWeqao_wKB7DGrWQv-43" target="y1mFWeqao_wKB7DGrWQv-49">
          <mxGeometry relative="1" as="geometry" />
        </mxCell>
        <mxCell id="y1mFWeqao_wKB7DGrWQv-52" style="edgeStyle=orthogonalEdgeStyle;rounded=0;orthogonalLoop=1;jettySize=auto;html=1;entryX=1;entryY=0.5;entryDx=0;entryDy=0;fontSize=15;fontColor=#CC0000;" edge="1" parent="WIyWlLk6GJQsqaUBKTNV-1" source="y1mFWeqao_wKB7DGrWQv-43" target="y1mFWeqao_wKB7DGrWQv-50">
          <mxGeometry relative="1" as="geometry" />
        </mxCell>
        <mxCell id="y1mFWeqao_wKB7DGrWQv-43" value="" style="aspect=fixed;perimeter=ellipsePerimeter;html=1;align=center;shadow=0;dashed=0;fontColor=#4277BB;labelBackgroundColor=#ffffff;fontSize=12;spacingTop=3;image;image=img/lib/ibm/devops/build_test.svg;" vertex="1" parent="WIyWlLk6GJQsqaUBKTNV-1">
          <mxGeometry x="626.5" y="510" width="87" height="87" as="geometry" />
        </mxCell>
        <mxCell id="y1mFWeqao_wKB7DGrWQv-47" value="Building and Testing" style="text;html=1;align=center;verticalAlign=middle;resizable=0;points=[];autosize=1;strokeColor=none;fillColor=none;fontStyle=1;strokeWidth=3;fontSize=12;" vertex="1" parent="WIyWlLk6GJQsqaUBKTNV-1">
          <mxGeometry x="600" y="602.5" width="140" height="30" as="geometry" />
        </mxCell>
        <mxCell id="y1mFWeqao_wKB7DGrWQv-55" value="" style="edgeStyle=orthogonalEdgeStyle;rounded=0;orthogonalLoop=1;jettySize=auto;html=1;fontSize=15;fontColor=#CC0000;" edge="1" parent="WIyWlLk6GJQsqaUBKTNV-1" source="y1mFWeqao_wKB7DGrWQv-49" target="y1mFWeqao_wKB7DGrWQv-10">
          <mxGeometry relative="1" as="geometry" />
        </mxCell>
        <mxCell id="y1mFWeqao_wKB7DGrWQv-49" value="&lt;b&gt;&lt;font style=&quot;font-size: 16px;&quot;&gt;Succeed&lt;/font&gt;&lt;/b&gt;" style="ellipse;whiteSpace=wrap;html=1;verticalAlign=top;fontColor=#009900;shadow=0;dashed=0;labelBackgroundColor=default;spacingTop=3;" vertex="1" parent="WIyWlLk6GJQsqaUBKTNV-1">
          <mxGeometry x="410" y="533.75" width="120" height="39.5" as="geometry" />
        </mxCell>
        <mxCell id="y1mFWeqao_wKB7DGrWQv-54" value="" style="edgeStyle=orthogonalEdgeStyle;rounded=0;orthogonalLoop=1;jettySize=auto;html=1;fontSize=15;fontColor=#CC0000;" edge="1" parent="WIyWlLk6GJQsqaUBKTNV-1" source="y1mFWeqao_wKB7DGrWQv-50" target="y1mFWeqao_wKB7DGrWQv-53">
          <mxGeometry relative="1" as="geometry" />
        </mxCell>
        <mxCell id="y1mFWeqao_wKB7DGrWQv-50" value="&lt;b style=&quot;&quot;&gt;&lt;font color=&quot;#cc0000&quot; style=&quot;font-size: 16px;&quot;&gt;Failed&lt;/font&gt;&lt;/b&gt;" style="ellipse;whiteSpace=wrap;html=1;verticalAlign=top;fontColor=#4277BB;shadow=0;dashed=0;labelBackgroundColor=default;spacingTop=3;" vertex="1" parent="WIyWlLk6GJQsqaUBKTNV-1">
          <mxGeometry x="426" y="457.5" width="120" height="40" as="geometry" />
        </mxCell>
        <mxCell id="y1mFWeqao_wKB7DGrWQv-53" value="&lt;b&gt;&lt;font style=&quot;font-size: 16px;&quot; color=&quot;#cc0000&quot;&gt;Abort&lt;/font&gt;&lt;/b&gt;" style="rounded=1;whiteSpace=wrap;html=1;verticalAlign=top;fontColor=#4277BB;shadow=0;dashed=0;labelBackgroundColor=default;spacingTop=3;" vertex="1" parent="WIyWlLk6GJQsqaUBKTNV-1">
          <mxGeometry x="340" y="378" width="120" height="40" as="geometry" />
        </mxCell>
        <mxCell id="y1mFWeqao_wKB7DGrWQv-57" value="Upload to EB" style="text;html=1;align=center;verticalAlign=middle;resizable=0;points=[];autosize=1;strokeColor=none;fillColor=none;fontStyle=1;strokeWidth=3;fontSize=12;" vertex="1" parent="WIyWlLk6GJQsqaUBKTNV-1">
          <mxGeometry x="285" y="602.5" width="100" height="30" as="geometry" />
        </mxCell>
        <mxCell id="y1mFWeqao_wKB7DGrWQv-59" value="Migrate DB" style="text;html=1;align=center;verticalAlign=middle;resizable=0;points=[];autosize=1;strokeColor=none;fillColor=none;fontStyle=1;strokeWidth=3;fontSize=12;" vertex="1" parent="WIyWlLk6GJQsqaUBKTNV-1">
          <mxGeometry x="197.75" y="600" width="90" height="30" as="geometry" />
        </mxCell>
        <mxCell id="y1mFWeqao_wKB7DGrWQv-64" value="" style="outlineConnect=0;dashed=0;verticalLabelPosition=bottom;verticalAlign=top;align=center;html=1;shape=mxgraph.aws3.data_pipeline;fillColor=#F58534;gradientColor=none;strokeWidth=3;fontSize=15;fontColor=#CC0000;" vertex="1" parent="WIyWlLk6GJQsqaUBKTNV-1">
          <mxGeometry x="669.25" y="10" width="77.75" height="80" as="geometry" />
        </mxCell>
        <mxCell id="y1mFWeqao_wKB7DGrWQv-63" value="Upload to S3" style="text;html=1;align=center;verticalAlign=middle;resizable=0;points=[];autosize=1;strokeColor=none;fillColor=none;fontStyle=1;strokeWidth=3;fontSize=12;" vertex="1" parent="WIyWlLk6GJQsqaUBKTNV-1">
          <mxGeometry x="201.75" y="322.5" width="100" height="30" as="geometry" />
        </mxCell>
        <mxCell id="y1mFWeqao_wKB7DGrWQv-65" value="Pipeline Process" style="text;html=1;align=center;verticalAlign=middle;resizable=0;points=[];autosize=1;strokeColor=none;fillColor=none;fontStyle=1;strokeWidth=3;fontSize=14;" vertex="1" parent="WIyWlLk6GJQsqaUBKTNV-1">
          <mxGeometry x="401.25" y="650" width="140" height="30" as="geometry" />
        </mxCell>
      </root>
    </mxGraphModel>
  </diagram>
</mxfile>
